<svg id="network" xmlns="http://www.w3.org/2000/svg" width="67.856" height="65.798" viewBox="0 0 67.856 65.798">
  <path id="Path_76" data-name="Path 76" d="M90.464,202.449H90.7a2.964,2.964,0,0,1,2.963,2.964v2.21a2.964,2.964,0,0,1-2.964,2.964h-.234a2.964,2.964,0,0,1-2.964-2.964v-2.21a2.964,2.964,0,0,1,2.964-2.964Z" transform="translate(-78.002 -177.314)" fill="#b53fe6"/>
  <path id="Path_77" data-name="Path 77" d="M371.586,148.03v-3.614a3.581,3.581,0,0,0-2.95-3.521,4.7,4.7,0,0,1-6.9-.02,3.6,3.6,0,0,0-3.081,3.541v3.615a12.555,12.555,0,0,0,12.931,0Z" transform="translate(-309.845 -124.667)" fill="#b53fe6"/>
  <path id="Path_78" data-name="Path 78" d="M74.141,281.049a4.7,4.7,0,0,1-6.9-.02,3.6,3.6,0,0,0-3.082,3.541v3.615a12.554,12.554,0,0,0,12.93,0V284.57A3.581,3.581,0,0,0,74.141,281.049Z" transform="translate(-58.046 -244.501)" fill="#b53fe6"/>
  <path id="Path_79" data-name="Path 79" d="M329.07,29.089a12.573,12.573,0,0,0-8.205,22.1V48.838a5.349,5.349,0,0,1,5.182-5.315.875.875,0,0,1,.721.353,2.958,2.958,0,0,0,4.667.114.976.976,0,0,1,.86-.457,5.319,5.319,0,0,1,4.98,5.306v2.355a12.573,12.573,0,0,0-8.2-22.1Zm4.821,9.988a4.709,4.709,0,0,1-4.7,4.7h-.234a4.709,4.709,0,0,1-4.7-4.7v-2.21a4.709,4.709,0,0,1,4.7-4.7h.235a4.709,4.709,0,0,1,4.7,4.7Z" transform="translate(-273.794 -29.089)" fill="#b53fe6"/>
  <path id="Path_80" data-name="Path 80" d="M34.572,169.248a12.572,12.572,0,0,0-8.205,22.1V189a5.349,5.349,0,0,1,5.182-5.314.87.87,0,0,1,.721.353,2.958,2.958,0,0,0,4.667.114.982.982,0,0,1,.859-.458A5.319,5.319,0,0,1,42.777,189v2.356a12.572,12.572,0,0,0-8.205-22.1Zm4.82,9.988a4.709,4.709,0,0,1-4.7,4.7h-.235a4.709,4.709,0,0,1-4.7-4.7v-2.21a4.709,4.709,0,0,1,4.7-4.7h.235a4.709,4.709,0,0,1,4.7,4.7Z" transform="translate(-21.993 -148.927)" fill="#b53fe6"/>
  <path id="Path_81" data-name="Path 81" d="M329.07,309.406a12.573,12.573,0,0,0-8.205,22.1v-2.355a5.349,5.349,0,0,1,5.182-5.314.875.875,0,0,1,.721.353,2.958,2.958,0,0,0,4.667.114.974.974,0,0,1,.86-.458,5.319,5.319,0,0,1,4.98,5.305v2.355a12.573,12.573,0,0,0-8.205-22.1Zm4.821,9.988a4.709,4.709,0,0,1-4.7,4.7h-.235a4.709,4.709,0,0,1-4.7-4.7v-2.21a4.709,4.709,0,0,1,4.7-4.7h.235a4.709,4.709,0,0,1,4.7,4.7Z" transform="translate(-273.794 -268.764)" fill="#b53fe6"/>
  <path id="Path_82" data-name="Path 82" d="M212.828,150.418V138.357a14.339,14.339,0,0,1-13.38-12.9l-17.893,9.263a14.288,14.288,0,0,1,.58,18.651l17.308,9.992A14.339,14.339,0,0,1,212.828,150.418Z" transform="translate(-158.422 -111.488)" fill="#b53fe6"/>
  <path id="Path_83" data-name="Path 83" d="M384.963,62.29h.234a2.964,2.964,0,0,1,2.964,2.964v2.21a2.964,2.964,0,0,1-2.964,2.964h-.234A2.964,2.964,0,0,1,382,67.464v-2.21A2.964,2.964,0,0,1,384.963,62.29Z" transform="translate(-329.804 -57.476)" fill="#b53fe6"/>
  <path id="Path_84" data-name="Path 84" d="M368.636,421.208a4.7,4.7,0,0,1-6.9-.02,3.6,3.6,0,0,0-3.081,3.541v3.615a12.554,12.554,0,0,0,12.93,0v-3.615A3.581,3.581,0,0,0,368.636,421.208Z" transform="translate(-309.845 -364.339)" fill="#b53fe6"/>
  <path id="Path_85" data-name="Path 85" d="M384.963,342.607h.234a2.964,2.964,0,0,1,2.964,2.964v2.21a2.964,2.964,0,0,1-2.964,2.964h-.234A2.964,2.964,0,0,1,382,347.781v-2.21a2.964,2.964,0,0,1,2.963-2.964Z" transform="translate(-329.804 -297.151)" fill="#b53fe6"/>
</svg>
