<svg id="speaker-filled-audio-tool" xmlns="http://www.w3.org/2000/svg" width="66.872" height="53.124" viewBox="0 0 66.872 53.124">
  <path id="Path_97" data-name="Path 97" d="M33.456,56.971a3.037,3.037,0,0,1-4.975,2.337l-16.6-13.757H3.037A3.036,3.036,0,0,1,0,42.516v-12.1a3.037,3.037,0,0,1,3.037-3.037H11.88l16.6-13.757a3.038,3.038,0,0,1,4.975,2.339v41.01Zm11.671-4.745c-.074.005-.145.008-.219.008a3.033,3.033,0,0,1-2.147-.889l-.406-.408a3.035,3.035,0,0,1-.293-3.956,17.658,17.658,0,0,0-.467-21.639,3.034,3.034,0,0,1,.209-4.061l.405-.406a2.97,2.97,0,0,1,2.3-.885,3.041,3.041,0,0,1,2.2,1.11,24.32,24.32,0,0,1,.633,29.915A3.039,3.039,0,0,1,45.127,52.226Zm12.555,9.385a3.04,3.04,0,0,1-2.194,1.075l-.127,0a3.034,3.034,0,0,1-2.148-.889l-.4-.4a3.037,3.037,0,0,1-.177-4.1A32.362,32.362,0,0,0,52.1,15.015a3.037,3.037,0,0,1,.122-4.157l.4-.4a2.956,2.956,0,0,1,2.239-.893,3.037,3.037,0,0,1,2.182,1.018,38.992,38.992,0,0,1,.639,51.026Z" transform="translate(0 -9.565)" fill="#e63f8d"/>
</svg>
