<svg id="social-media_2_" data-name="social-media (2)" xmlns="http://www.w3.org/2000/svg" width="65.798" height="65.798" viewBox="0 0 65.798 65.798">
  <g id="content">
    <path id="Path_34" data-name="Path 34" d="M4.8,28.062H25.36a4.8,4.8,0,0,0,4.8-4.8V12.3a4.8,4.8,0,0,0-4.8-4.8H4.8A4.8,4.8,0,0,0,0,12.3V23.264A4.8,4.8,0,0,0,4.8,28.062Z" transform="translate(0 13.062)" fill="#823fe6"/>
    <path id="Path_35" data-name="Path 35" d="M4.8,37.062H25.36a4.8,4.8,0,0,0,4.8-4.8V21.3a4.8,4.8,0,0,0-4.8-4.8H4.8A4.8,4.8,0,0,0,0,21.3V32.264A4.8,4.8,0,0,0,4.8,37.062Z" transform="translate(0 28.736)" fill="#823fe6"/>
    <path id="Path_36" data-name="Path 36" d="M61,0H4.8A4.8,4.8,0,0,0,0,4.8v6.854a4.8,4.8,0,0,0,4.8,4.8H61a4.8,4.8,0,0,0,4.8-4.8V4.8A4.8,4.8,0,0,0,61,0Z" fill="#823fe6"/>
    <path id="Path_37" data-name="Path 37" d="M41.1,7.5H15.056a2.056,2.056,0,1,0,0,4.112H41.1a2.056,2.056,0,1,0,0-4.112Z" transform="translate(22.64 13.062)" fill="#823fe6"/>
    <path id="Path_38" data-name="Path 38" d="M41.1,10.5H15.056a2.056,2.056,0,1,0,0,4.112H41.1a2.056,2.056,0,1,0,0-4.112Z" transform="translate(22.64 18.287)" fill="#823fe6"/>
    <path id="Path_39" data-name="Path 39" d="M41.1,13.5H15.056a2.056,2.056,0,1,0,0,4.112H41.1a2.056,2.056,0,1,0,0-4.112Z" transform="translate(22.64 23.511)" fill="#823fe6"/>
    <path id="Path_40" data-name="Path 40" d="M41.1,16.5H15.056a2.056,2.056,0,0,0,0,4.112H41.1a2.056,2.056,0,1,0,0-4.112Z" transform="translate(22.64 28.736)" fill="#823fe6"/>
    <path id="Path_41" data-name="Path 41" d="M41.1,19.5H15.056a2.056,2.056,0,0,0,0,4.112H41.1a2.056,2.056,0,1,0,0-4.112Z" transform="translate(22.64 33.961)" fill="#823fe6"/>
    <path id="Path_42" data-name="Path 42" d="M41.1,22.5H15.056a2.056,2.056,0,1,0,0,4.112H41.1a2.056,2.056,0,1,0,0-4.112Z" transform="translate(22.64 39.185)" fill="#823fe6"/>
  </g>
</svg>
