<svg id="copywriting" xmlns="http://www.w3.org/2000/svg" width="65.507" height="61.413" viewBox="0 0 65.507 61.413">
  <path id="Path_23" data-name="Path 23" d="M5.757,31.206H24.41l7.114,7.114A1.919,1.919,0,0,0,34.8,36.964V31.206h5.757a5.764,5.764,0,0,0,5.757-5.757V6.257A5.764,5.764,0,0,0,40.558.5H5.757A5.764,5.764,0,0,0,0,6.257V25.449A5.764,5.764,0,0,0,5.757,31.206ZM34.8,12.015a3.838,3.838,0,1,1-3.838,3.838A3.843,3.843,0,0,1,34.8,12.015Zm-11.515,0a3.838,3.838,0,1,1-3.838,3.838A3.843,3.843,0,0,1,23.286,12.015Zm-11.643,0A3.838,3.838,0,1,1,7.8,15.853,3.843,3.843,0,0,1,11.643,12.015Zm0,0" transform="translate(0 -0.5)" fill="#3f9ee6"/>
  <path id="Path_24" data-name="Path 24" d="M1.919,420.328h26.85a4.258,4.258,0,0,0,1.137-.307l5.451-2.725a1.959,1.959,0,0,0,.5-.345L30.406,411.5a1.958,1.958,0,0,0-.345.5l-2.246,4.491H1.919a1.919,1.919,0,0,0,0,3.838Zm0,0" transform="translate(0 -358.915)" fill="#3f9ee6"/>
  <path id="Path_25" data-name="Path 25" d="M278.544,237.8,258.95,257.334l5.412,5.412,19.633-19.5Zm0,0" transform="translate(-225.819 -207.436)" fill="#3f9ee6"/>
  <path id="Path_26" data-name="Path 26" d="M440.192,181.076a1.9,1.9,0,0,0-2.725,0l-4.069,4.069,5.412,5.412,4.069-4.068a1.9,1.9,0,0,0,0-2.725Zm0,0" transform="translate(-377.948 -157.47)" fill="#3f9ee6"/>
</svg>
