<svg id="social-media_2_" data-name="social-media (2)" xmlns="http://www.w3.org/2000/svg" width="65.507" height="65.507" viewBox="0 0 65.507 65.507">
  <path id="Path_29" data-name="Path 29" d="M366.243,355.985a2.533,2.533,0,1,0-2.533-2.533,2.536,2.536,0,0,0,2.533,2.533Z" transform="translate(-317.176 -306.022)" fill="#3f3fe6"/>
  <path id="Path_30" data-name="Path 30" d="M342.218,420.51h0a6.063,6.063,0,0,0-6.056,6.058v4.5a16.509,16.509,0,0,0,12.115,0v-4.5A6.064,6.064,0,0,0,342.218,420.51Z" transform="translate(-293.151 -366.709)" fill="#3f3fe6"/>
  <path id="Path_31" data-name="Path 31" d="M49.066,32.625a16.36,16.36,0,0,0-10.2,3.552l-9.6-9.441c.027-.034.056-.067.083-.1a16.411,16.411,0,0,0,3.419-8.275H45.562a10.065,10.065,0,1,0,0-3.838H32.769A16.441,16.441,0,1,0,6.544,29.58V27.234a9.9,9.9,0,0,1,4.871-8.521,6.37,6.37,0,1,1,10.051,0A9.935,9.935,0,0,1,26.058,24.9a17.758,17.758,0,0,1,.278,4.68l9.8,9.336a16.362,16.362,0,0,0-3.4,8.23H19.945a10.065,10.065,0,1,0,0,3.838H32.737a16.422,16.422,0,0,0,6.434,11.222V59.859a9.9,9.9,0,0,1,4.87-8.521,6.372,6.372,0,1,1,10.051,0,9.9,9.9,0,0,1,4.871,8.521v2.346a16.448,16.448,0,0,0-9.9-29.58Z" transform="translate(0 0)" fill="#3f3fe6"/>
  <path id="Path_32" data-name="Path 32" d="M113.765,98.452a2.533,2.533,0,1,0-2.532,2.532A2.534,2.534,0,0,0,113.765,98.452Z" transform="translate(-94.793 -83.648)" fill="#3f3fe6"/>
  <path id="Path_33" data-name="Path 33" d="M81.15,171.559v4.5a16.508,16.508,0,0,0,12.115,0v-4.5a6.057,6.057,0,1,0-12.115,0Z" transform="translate(-70.767 -144.325)" fill="#3f3fe6"/>
</svg>
