<svg id="email" xmlns="http://www.w3.org/2000/svg" width="67.855" height="46.651" viewBox="0 0 67.855 46.651">
  <g id="Group_22" data-name="Group 22" transform="translate(44.98 8.601)">
    <g id="Group_21" data-name="Group 21">
      <path id="Path_86" data-name="Path 86" d="M339.392,159.968l22.876,14.462V144.9Z" transform="translate(-339.392 -144.896)" fill="#e63fc5"/>
    </g>
  </g>
  <g id="Group_24" data-name="Group 24" transform="translate(0 8.601)">
    <g id="Group_23" data-name="Group 23">
      <path id="Path_87" data-name="Path 87" d="M0,144.9V174.43l22.876-14.462Z" transform="translate(0 -144.896)" fill="#e63fc5"/>
    </g>
  </g>
  <g id="Group_26" data-name="Group 26" transform="translate(0.127)">
    <g id="Group_25" data-name="Group 25">
      <path id="Path_88" data-name="Path 88" d="M64.447,80H5.074A4.188,4.188,0,0,0,.96,83.609l33.8,22.269,33.8-22.269A4.188,4.188,0,0,0,64.447,80Z" transform="translate(-0.96 -80)" fill="#e63fc5"/>
    </g>
  </g>
  <g id="Group_28" data-name="Group 28" transform="translate(0.136 26.23)">
    <g id="Group_27" data-name="Group 27">
      <path id="Path_89" data-name="Path 89" d="M41.983,277.924l-6,3.953a2.13,2.13,0,0,1-2.333,0l-6-3.957L1.024,294.761a4.182,4.182,0,0,0,4.105,3.579H64.5a4.182,4.182,0,0,0,4.105-3.579Z" transform="translate(-1.024 -277.92)" fill="#e63fc5"/>
    </g>
  </g>
</svg>
