<svg width="150" height="150" viewBox="0 0 150 150" fill="none" xmlns="http://www.w3.org/2000/svg">
<path opacity="1.0" d="M107.204 94.3396H100.429L98.0274 92.024C106.432 82.247 111.492 69.554 111.492 55.7461C111.492 24.9571 86.5352 0 55.7461 0C24.9571 0 0 24.9571 0 55.7461C0 86.5352 24.9571 111.492 55.7461 111.492C69.554 111.492 82.247 106.432 92.024 98.0274L94.3396 100.429V107.204L137.221 150L150 137.221L107.204 94.3396V94.3396ZM55.7461 94.3396C34.3911 94.3396 17.1527 77.1012 17.1527 55.7461C17.1527 34.3911 34.3911 17.1527 55.7461 17.1527C77.1012 17.1527 94.3396 34.3911 94.3396 55.7461C94.3396 77.1012 77.1012 94.3396 55.7461 94.3396Z" fill="black"/>
</svg>
