<svg width="167" height="150" viewBox="0 0 167 150" fill="none" xmlns="http://www.w3.org/2000/svg">
<g opacity="1.0">
<path d="M83.6686 110C98.3962 110 110.335 98.0609 110.335 83.3333C110.335 68.6057 98.3962 56.6666 83.6686 56.6666C68.941 56.6666 57.002 68.6057 57.002 83.3333C57.002 98.0609 68.941 110 83.6686 110Z" fill="black"/>
<path d="M58.6673 0L43.4173 16.6667H17.0007C7.83398 16.6667 0.333984 24.1667 0.333984 33.3333V133.333C0.333984 142.5 7.83398 150 17.0007 150H150.334C159.501 150 167.001 142.5 167.001 133.333V33.3333C167.001 24.1667 159.501 16.6667 150.334 16.6667H123.917L108.667 0H58.6673ZM83.6673 125C60.6673 125 42.0006 106.333 42.0006 83.3333C42.0006 60.3333 60.6673 41.6667 83.6673 41.6667C106.667 41.6667 125.334 60.3333 125.334 83.3333C125.334 106.333 106.667 125 83.6673 125Z" fill="black"/>
</g>
</svg>
