<svg width="149" height="105" viewBox="0 0 149 105" fill="none" xmlns="http://www.w3.org/2000/svg">
<path opacity="1.0" d="M147.867 93.5165L110.61 33.4724C109.942 32.3863 109.009 31.49 107.901 30.8684C106.792 30.2469 105.545 29.9207 104.276 29.9207C103.008 29.9207 101.76 30.2469 100.652 30.8684C99.5431 31.49 98.6106 32.3863 97.9423 33.4724L90.4908 45.7064L65.9754 3.6755C65.3156 2.5555 64.3779 1.6277 63.2543 0.983284C62.1308 0.338863 60.8601 0 59.5671 0C58.2742 0 57.0035 0.338863 55.8799 0.983284C54.7564 1.6277 53.8186 2.5555 53.1589 3.6755L0.99839 93.7417C0.346255 94.8794 0.00199026 96.1695 8.60376e-06 97.4832C-0.00197305 98.7969 0.338396 100.088 0.987097 101.228C1.6358 102.367 2.57011 103.316 3.69664 103.978C4.82318 104.64 6.10247 104.992 7.40667 105H141.534C142.865 105.003 144.173 104.646 145.321 103.967C146.469 103.288 147.416 102.312 148.062 101.139C148.709 99.9672 149.032 98.6418 148.998 97.3012C148.963 95.9606 148.573 94.6537 147.867 93.5165ZM62.9203 89.9889H20.3723L59.5671 22.4393L81.4 59.9669L62.9203 89.9889ZM80.4313 89.9889L96.8246 64.245L104.276 51.6358L128.121 89.9889H80.4313Z" fill="black"/>
</svg>
