<svg width="168" height="149" viewBox="0 0 168 149" fill="none" xmlns="http://www.w3.org/2000/svg">
<path opacity="1.0" d="M154.035 87.6885L167.823 27.1573C168.818 22.7868 165.489 18.625 160.997 18.625H46.4357L43.7623 5.58459C43.0961 2.33424 40.2296 0 36.9043 0H7C3.13396 0 0 3.12696 0 6.98438V11.6406C0 15.498 3.13396 18.625 7 18.625H27.3825L47.8715 118.57C42.9698 121.383 39.6667 126.656 39.6667 132.703C39.6667 141.704 46.9793 149 56 149C65.0207 149 72.3333 141.704 72.3333 132.703C72.3333 128.142 70.453 124.021 67.4263 121.062H128.573C125.547 124.021 123.667 128.142 123.667 132.703C123.667 141.704 130.979 149 140 149C149.021 149 156.333 141.704 156.333 132.703C156.333 126.251 152.574 120.675 147.123 118.034L148.732 110.97C149.727 106.599 146.398 102.438 141.906 102.438H63.6175L61.7085 93.125H147.209C150.478 93.125 153.311 90.8685 154.035 87.6885Z" fill="black"/>
</svg>
