<svg width="89" height="149" viewBox="0 0 89 149" fill="none" xmlns="http://www.w3.org/2000/svg">
<g opacity="1.0">
<path d="M77.1333 56.62V77.48C77.1333 92.0179 64.9077 104.3 50.4333 104.3H38.5667C24.0938 104.3 11.8667 92.0179 11.8667 77.48V56.62H0V77.48C0 98.4801 17.6606 116.22 38.5667 116.22V137.08H13.35V149H75.65V137.08H50.4333V116.22C71.3394 116.22 89 98.4801 89 77.48V56.62H77.1333Z" fill="black"/>
<path d="M38.5676 95.36H50.4342C58.91 95.36 66.4364 88.6803 67.9435 80.46H50.3111V74.5H68.2342V68.54H50.3111V62.58H68.2342V56.62H50.3111V50.66H68.2342V44.7H50.3111V38.74H68.2342V32.78H50.3111V26.82H68.2342V20.86H50.3111V14.9H67.9435C66.4364 6.67967 58.91 0 50.4342 0H38.5676C29.0846 0 20.7676 8.35443 20.7676 17.88V77.48C20.7676 87.0056 29.0846 95.36 38.5676 95.36Z" fill="black"/>
</g>
</svg>
