<svg width="150" height="150" viewBox="0 0 150 150" fill="none" xmlns="http://www.w3.org/2000/svg">
<path opacity="1.0" fill-rule="evenodd" clip-rule="evenodd" d="M150 9.37031C149.999 7.77284 149.59 6.20208 148.812 4.80708C148.033 3.41208 146.912 2.23911 145.553 1.39947C144.194 0.55983 142.643 0.0813721 141.047 0.00949605C139.451 -0.06238 137.863 0.274709 136.434 0.988779L63.4031 37.4962H28.125C20.6658 37.4962 13.5121 40.4595 8.23762 45.7341C2.96316 51.0088 0 58.1627 0 65.6222C0 73.0816 2.96316 80.2356 8.23762 85.5102C13.5121 90.7849 20.6658 93.7481 28.125 93.7481H30.75L47.3531 143.587C47.9751 145.455 49.1692 147.079 50.7661 148.23C52.3629 149.381 54.2816 150 56.25 150H65.625C68.1114 150 70.496 149.012 72.2541 147.254C74.0123 145.496 75 143.111 75 140.625V99.5421L136.434 130.256C137.863 130.97 139.451 131.307 141.047 131.235C142.643 131.163 144.194 130.685 145.553 129.845C146.912 129.005 148.033 127.832 148.812 126.437C149.59 125.042 149.999 123.472 150 121.874V9.37031Z" fill="black"/>
</svg>
