<svg id="design" xmlns="http://www.w3.org/2000/svg" width="61.948" height="61.948" viewBox="0 0 61.948 61.948">
  <path id="Path_62" data-name="Path 62" d="M303.472,6.726,298.337,1.59a5.456,5.456,0,0,0-7.7,0l-1.228,1.227,6.417,6.417a1.815,1.815,0,1,1-2.566,2.566l-6.416-6.417-2.567,2.567,3.851,3.85a1.815,1.815,0,0,1-2.566,2.566l-3.851-3.85-5.134,5.134,12.833,12.832,14.063-14.06a5.458,5.458,0,0,0,0-7.7Zm0,0" transform="translate(-243.114 -0.001)" fill="#a9e63f"/>
  <path id="Path_63" data-name="Path 63" d="M6.725,304.575a5.449,5.449,0,0,0,7.7,0l13.905-13.9L15.5,277.836l-5.134,5.134,3.85,3.85a1.815,1.815,0,0,1-2.566,2.566l-3.85-3.85L5.231,288.1l6.417,6.416a1.815,1.815,0,0,1-2.566,2.566L2.664,290.67l-1.072,1.071a5.452,5.452,0,0,0,0,7.7Zm0,0" transform="translate(0 -244.22)" fill="#a9e63f"/>
  <path id="Path_64" data-name="Path 64" d="M.122,2.463,6.968,19.048,18.9,7.118,2.465.12A1.814,1.814,0,0,0,.122,2.463Zm0,0" transform="translate(-0.001 0.001)" fill="#a9e63f"/>
  <path id="Path_65" data-name="Path 65" d="M171.96,114.573l5.132-5.133L143.828,76.324,138.7,81.457Zm0,0" transform="translate(-121.914 -67.089)" fill="#a9e63f"/>
  <path id="Path_66" data-name="Path 66" d="M113.46,173.073,80.195,139.957l-5.133,5.133,33.263,33.118Zm0,0" transform="translate(-65.98 -123.023)" fill="#a9e63f"/>
  <path id="Path_67" data-name="Path 67" d="M386.633,373.85l-2.607-2.608-12.833,12.834,2.609,2.609a5.46,5.46,0,0,0,7.7,0v0l5.133-5.133A5.442,5.442,0,0,0,386.633,373.85Zm0,0" transform="translate(-326.281 -326.325)" fill="#a9e63f"/>
</svg>
