<svg id="packaging" xmlns="http://www.w3.org/2000/svg" width="49.492" height="70" viewBox="0 0 49.492 70">
  <path id="Path_68" data-name="Path 68" d="M126.609,60H98.862l-6.836,8.2h27.747Z" transform="translate(-89.698 -51.797)" fill="#3fe65b"/>
  <path id="Path_69" data-name="Path 69" d="M103.984,240.531c-6.252.456-9.67,3-13.268,5.675-3.99,2.967-8.107,6.026-15.716,6.494v24.947h28.984Z" transform="translate(-75 -207.646)" fill="#3fe65b"/>
  <path id="Path_70" data-name="Path 70" d="M150,0h28.984V4.1H150Z" transform="translate(-139.746)" fill="#3fe65b"/>
  <path id="Path_71" data-name="Path 71" d="M88.268,164.761c3.99-2.967,8.107-6.026,15.716-6.494V150H75v20.435C81.252,169.979,84.67,167.437,88.268,164.761Z" transform="translate(-75 -129.492)" fill="#3fe65b"/>
  <path id="Path_72" data-name="Path 72" d="M334.026,75.481h11.751l-5.875-7.05Z" transform="translate(-298.612 -59.075)" fill="#3fe65b"/>
  <path id="Path_73" data-name="Path 73" d="M317,150h16.406v49.492H317Z" transform="translate(-283.914 -129.492)" fill="#3fe65b"/>
</svg>
