<svg
            id="visual"
            viewBox="0 0 900 600"
            width="900"
            height="600"
            xmlns="http://www.w3.org/2000/svg"
            xmlns:xlink="http://www.w3.org/1999/xlink"
            version="1.1"
          >
            <path
              d="M0 428L18.8 426.3C37.7 424.7 75.3 421.3 112.8 425.8C150.3 430.3 187.7 442.7 225.2 449.5C262.7 456.3 300.3 457.7 337.8 444.5C375.3 431.3 412.7 403.7 450.2 399C487.7 394.3 525.3 412.7 562.8 418C600.3 423.3 637.7 415.7 675.2 420.3C712.7 425 750.3 442 787.8 438.8C825.3 435.7 862.7 412.3 881.3 400.7L900 389L900 601L881.3 601C862.7 601 825.3 601 787.8 601C750.3 601 712.7 601 675.2 601C637.7 601 600.3 601 562.8 601C525.3 601 487.7 601 450.2 601C412.7 601 375.3 601 337.8 601C300.3 601 262.7 601 225.2 601C187.7 601 150.3 601 112.8 601C75.3 601 37.7 601 18.8 601L0 601Z"
              fill="#e11768"
            ></path>
            <path
              d="M0 470L18.8 474.8C37.7 479.7 75.3 489.3 112.8 486.8C150.3 484.3 187.7 469.7 225.2 466.8C262.7 464 300.3 473 337.8 472C375.3 471 412.7 460 450.2 459.5C487.7 459 525.3 469 562.8 464.7C600.3 460.3 637.7 441.7 675.2 440.8C712.7 440 750.3 457 787.8 457.3C825.3 457.7 862.7 441.3 881.3 433.2L900 425L900 601L881.3 601C862.7 601 825.3 601 787.8 601C750.3 601 712.7 601 675.2 601C637.7 601 600.3 601 562.8 601C525.3 601 487.7 601 450.2 601C412.7 601 375.3 601 337.8 601C300.3 601 262.7 601 225.2 601C187.7 601 150.3 601 112.8 601C75.3 601 37.7 601 18.8 601L0 601Z"
              fill="#e8407e"
            ></path>
            <path
              d="M0 508L18.8 507.8C37.7 507.7 75.3 507.3 112.8 509.3C150.3 511.3 187.7 515.7 225.2 518.3C262.7 521 300.3 522 337.8 519.5C375.3 517 412.7 511 450.2 511C487.7 511 525.3 517 562.8 509.8C600.3 502.7 637.7 482.3 675.2 480C712.7 477.7 750.3 493.3 787.8 496.7C825.3 500 862.7 491 881.3 486.5L900 482L900 601L881.3 601C862.7 601 825.3 601 787.8 601C750.3 601 712.7 601 675.2 601C637.7 601 600.3 601 562.8 601C525.3 601 487.7 601 450.2 601C412.7 601 375.3 601 337.8 601C300.3 601 262.7 601 225.2 601C187.7 601 150.3 601 112.8 601C75.3 601 37.7 601 18.8 601L0 601Z"
              fill="#ee5b92"
            ></path>
            <path
              d="M0 523L18.8 529.3C37.7 535.7 75.3 548.3 112.8 546.2C150.3 544 187.7 527 225.2 520.7C262.7 514.3 300.3 518.7 337.8 525.2C375.3 531.7 412.7 540.3 450.2 545.2C487.7 550 525.3 551 562.8 550.3C600.3 549.7 637.7 547.3 675.2 547.3C712.7 547.3 750.3 549.7 787.8 545.2C825.3 540.7 862.7 529.3 881.3 523.7L900 518L900 601L881.3 601C862.7 601 825.3 601 787.8 601C750.3 601 712.7 601 675.2 601C637.7 601 600.3 601 562.8 601C525.3 601 487.7 601 450.2 601C412.7 601 375.3 601 337.8 601C300.3 601 262.7 601 225.2 601C187.7 601 150.3 601 112.8 601C75.3 601 37.7 601 18.8 601L0 601Z"
              fill="#f373a6"
            ></path>
          </svg>