<?xml version="1.0" standalone="no"?>
<!DOCTYPE svg PUBLIC "-//W3C//DTD SVG 20010904//EN"
 "http://www.w3.org/TR/2001/REC-SVG-20010904/DTD/svg10.dtd">
<svg version="1.0" xmlns="http://www.w3.org/2000/svg"
 width="764.000000pt" height="764.000000pt" viewBox="0 0 764.000000 764.000000"
 preserveAspectRatio="xMidYMid meet">
<metadata>
Created by potrace 1.14, written by Peter Selinger 2001-2017
</metadata>
<g transform="translate(0.000000,764.000000) scale(0.100000,-0.100000)"
fill="#000000" stroke="none">
<path d="M1925 7068 c-3 -13 -6 -256 -8 -540 -1 -284 -5 -519 -8 -522 -6 -7
-171 88 -269 154 -30 21 -86 53 -125 73 -70 35 -204 114 -260 153 -16 12 -68
40 -115 63 -46 24 -95 52 -109 62 -17 14 -28 17 -35 9 -15 -15 -20 -1015 -6
-1050 6 -14 42 -45 82 -70 39 -25 101 -64 137 -88 36 -23 77 -45 91 -49 30 -7
93 -43 177 -100 34 -23 111 -66 170 -95 59 -29 133 -70 163 -93 30 -22 67 -48
82 -57 l26 -17 1 -520 c1 -285 -1 -531 -5 -545 -7 -31 -20 -33 -48 -7 -12 11
-55 37 -96 59 -41 21 -117 67 -169 100 -51 34 -98 62 -105 62 -12 0 -151 80
-201 116 -17 12 -55 35 -85 51 -30 17 -89 49 -131 72 -61 33 -78 39 -87 28
-12 -14 -17 -987 -6 -1031 3 -12 26 -36 52 -54 26 -17 74 -50 107 -72 33 -22
75 -45 95 -51 39 -13 196 -106 250 -149 19 -15 78 -48 130 -73 52 -25 141 -75
198 -113 l102 -68 0 -542 c0 -422 3 -546 13 -554 24 -21 130 -80 143 -80 8 0
14 -4 14 -10 0 -5 6 -10 13 -10 19 0 129 -59 157 -84 40 -36 123 -85 187 -110
57 -22 120 -60 209 -126 23 -16 46 -30 51 -30 6 0 16 -7 23 -15 7 -8 21 -15
32 -15 11 0 32 -7 48 -16 57 -34 55 -52 58 512 1 284 4 519 7 522 5 5 84 -39
130 -73 17 -12 66 -40 110 -62 44 -22 118 -63 165 -92 47 -29 119 -71 160 -92
41 -21 107 -59 145 -83 39 -25 107 -64 153 -87 l82 -42 0 -536 c0 -295 4 -541
8 -547 4 -5 39 -27 77 -48 39 -21 75 -43 80 -50 16 -20 98 -73 125 -81 56 -16
224 -113 280 -161 14 -12 51 -31 83 -43 79 -29 116 -48 155 -82 18 -16 39 -29
47 -29 8 0 20 -9 27 -20 7 -11 23 -20 35 -20 l23 0 2 523 3 522 31 -1 c18 -1
45 -11 60 -21 32 -22 159 -99 202 -123 82 -45 229 -128 260 -147 21 -13 71
-39 112 -60 41 -20 86 -44 100 -53 89 -61 154 -100 166 -100 12 0 14 85 14
529 0 485 -1 529 -17 535 -18 7 -68 38 -166 101 -34 22 -111 67 -172 99 -60
32 -148 84 -195 116 -47 31 -119 73 -160 93 -41 19 -111 58 -155 85 l-80 49
-3 547 c-2 479 0 547 13 552 14 6 140 -62 270 -146 33 -21 67 -39 76 -39 9 -1
27 -9 40 -20 13 -10 51 -33 84 -51 33 -18 67 -39 75 -46 8 -6 65 -38 125 -69
61 -31 141 -77 180 -101 38 -24 73 -44 77 -44 10 0 10 1041 0 1056 -4 6 -27
21 -52 34 -25 12 -79 46 -120 75 -41 29 -118 74 -170 100 -52 26 -129 70 -170
98 -41 27 -118 72 -170 99 -103 54 -198 111 -237 143 l-24 20 1 540 0 540 -77
51 c-43 28 -110 67 -149 87 -39 20 -113 62 -165 95 -52 32 -134 80 -184 107
-49 26 -126 71 -170 100 -98 64 -158 95 -185 95 -20 0 -20 -3 -20 -530 0 -572
2 -553 -51 -511 -13 10 -68 41 -121 69 -53 28 -138 77 -190 109 -51 33 -138
83 -193 112 -55 30 -130 73 -166 97 -80 53 -176 104 -195 104 -7 0 -16 10 -19
23 -4 13 -7 266 -8 562 l-2 539 -100 57 c-55 30 -136 78 -180 106 -45 27 -112
67 -150 88 -122 66 -149 81 -205 115 -30 18 -73 45 -95 60 -22 15 -65 39 -95
54 -30 15 -64 36 -76 47 -26 25 -32 24 -39 -3z m1028 -2767 c50 -34 88 -56
228 -132 58 -32 130 -73 160 -92 30 -19 87 -51 127 -71 39 -20 98 -53 129 -74
32 -20 91 -55 133 -77 l75 -40 3 -544 c1 -300 -1 -548 -6 -553 -4 -4 -30 7
-58 26 -27 18 -94 57 -149 87 -55 29 -157 87 -227 128 -203 121 -325 193 -411
241 -64 36 -82 51 -89 75 -8 27 -8 1050 0 1068 4 8 25 -2 85 -42z"/>
</g>
</svg>
