<svg id="social-media_3_" data-name="social-media (3)" xmlns="http://www.w3.org/2000/svg" width="66.872" height="66.872" viewBox="0 0 66.872 66.872">
  <g id="Group_35" data-name="Group 35">
    <g id="Group_34" data-name="Group 34">
      <path id="Path_94" data-name="Path 94" d="M237.224,90a3.125,3.125,0,0,0-3.121,3.121v8.125a3.121,3.121,0,1,0,6.242,0V93.121A3.125,3.125,0,0,0,237.224,90Z" transform="translate(-203.527 -78.245)" fill="#e63f3f"/>
      <path id="Path_95" data-name="Path 95" d="M62.3,0H4.571A4.577,4.577,0,0,0,0,4.571V33.305a4.577,4.577,0,0,0,4.571,4.571H7.678l9.875,9.875A1.959,1.959,0,0,0,20.9,46.366v-8.49H62.3a4.577,4.577,0,0,0,4.571-4.571V4.571A4.577,4.577,0,0,0,62.3,0ZM22.938,30c-2.534.032-4.389.045-5.753.045-3.51,0-3.773-.088-4.03-.174a2.043,2.043,0,0,1-1.328-1.345,2.384,2.384,0,0,1,.443-2.084c.18-.262.44-.6.835-1.119.911-1.193,2.607-3.413,5.449-7.473a10,10,0,0,0,1.582-3.125l.057-.447a2.631,2.631,0,0,0-5.208-.4,1.959,1.959,0,0,1-3.845-.755,6.549,6.549,0,0,1,12.974,1.267,1.971,1.971,0,0,1-.016.248l-.089.694a1.948,1.948,0,0,1-.035.194,13.552,13.552,0,0,1-2.21,4.574c-1.933,2.762-3.347,4.689-4.349,6.026,1.619,0,3.605-.017,5.474-.041A1.959,1.959,0,1,1,22.938,30Zm17.8-7a7.039,7.039,0,0,1-14.079,0V14.876a7.039,7.039,0,1,1,14.079,0Zm14.451,6.474a1.959,1.959,0,0,1-2.771-.016l-4.446-4.5v3.069a1.959,1.959,0,0,1-3.918,0V9.8a1.959,1.959,0,0,1,3.918,0v7.583l3.92-3.2a1.959,1.959,0,0,1,2.479,3.034l-4.729,3.865L55.2,26.7a1.959,1.959,0,0,1-.017,2.771Z" fill="#e63f3f"/>
    </g>
  </g>
  <path id="Path_96" data-name="Path 96" d="M201.793,324.386l-.464.464-.464-.464a8.062,8.062,0,0,0-11.4,11.4l10.48,10.48a1.959,1.959,0,0,0,2.771,0l10.48-10.48a8.062,8.062,0,0,0-11.4-11.4Z" transform="translate(-162.669 -279.969)" fill="#e63f3f"/>
</svg>
