<svg id="id-card" xmlns="http://www.w3.org/2000/svg" width="45.59" height="70" viewBox="0 0 45.59 70">
  <g id="Group_20" data-name="Group 20" transform="translate(0)">
    <g id="Group_19" data-name="Group 19">
      <path id="Path_74" data-name="Path 74" d="M162.034,152.883a6.668,6.668,0,1,0-6.668-6.668A6.667,6.667,0,0,0,162.034,152.883Z" transform="translate(-139.239 -114.099)" fill="#3fe6a3"/>
      <path id="Path_75" data-name="Path 75" d="M105.483,8.37H95.119V1.8a1.8,1.8,0,0,0-1.8-1.8H86.129a1.8,1.8,0,0,0-1.8,1.8V8.371H73.966a7.036,7.036,0,0,0-7.036,7.037V62.963A7.036,7.036,0,0,0,73.966,70h31.517a7.037,7.037,0,0,0,7.037-7.037V15.407A7.037,7.037,0,0,0,105.483,8.37ZM87.395,2.609h4.661a1.146,1.146,0,0,1,0,2.292H87.395a1.146,1.146,0,0,1,0-2.292Zm-3.586,8.15h.522v.469a1.8,1.8,0,0,0,1.8,1.8h7.192a1.8,1.8,0,0,0,1.8-1.8v-.469h.521a1.954,1.954,0,0,1,0,3.908H83.809a1.954,1.954,0,1,1,0-3.908ZM77.636,23.717h24.178V46.609H99.03l.36-4.682a2.276,2.276,0,0,0-2.269-2.451H82.328a2.276,2.276,0,0,0-2.269,2.451l.36,4.682H77.636V23.717ZM101.53,59.931H77.92a2.2,2.2,0,0,1,0-4.4h23.61a2.2,2.2,0,0,1,0,4.4Z" transform="translate(-66.93)" fill="#3fe6a3"/>
    </g>
  </g>
</svg>
