<svg id="world-wide-web" xmlns="http://www.w3.org/2000/svg" width="70" height="70" viewBox="0 0 70 70">
  <g id="Group_2" data-name="Group 2" transform="translate(22.399 4.443)">
    <g id="Group_1" data-name="Group 1">
      <path id="Path_47" data-name="Path 47" d="M163.83,48.7h10.551V32.5C169.976,33.947,166.015,40.129,163.83,48.7Z" transform="translate(-163.83 -32.501)" fill="#ff8e43"/>
    </g>
  </g>
  <g id="Group_4" data-name="Group 4" transform="translate(22.399 49.355)">
    <g id="Group_3" data-name="Group 3">
      <path id="Path_48" data-name="Path 48" d="M163.83,361c2.185,8.573,6.146,14.755,10.551,16.2V361Z" transform="translate(-163.83 -361)" fill="#ff8e43"/>
    </g>
  </g>
  <g id="Group_6" data-name="Group 6" transform="translate(0 24.746)">
    <g id="Group_5" data-name="Group 5">
      <path id="Path_49" data-name="Path 49" d="M67.949,181H2.051A2.051,2.051,0,0,0,0,183.051v16.406a2.051,2.051,0,0,0,2.051,2.051h65.9A2.051,2.051,0,0,0,70,199.457V183.051A2.051,2.051,0,0,0,67.949,181Zm-2.4,7.07-4.1,8.2a2.051,2.051,0,0,1-3.669,0l-2.267-4.534-2.267,4.534a2.135,2.135,0,0,1-3.669,0l-3.929-7.861a1.99,1.99,0,0,1-.415-1.044,2.026,2.026,0,0,1-.19.7l-4.1,8.2a2.051,2.051,0,0,1-3.669,0L35,191.739l-2.267,4.534a2.135,2.135,0,0,1-3.669,0l-4.1-8.2a2.017,2.017,0,0,1-.183-.675,2.1,2.1,0,0,1-.488,1.151l-3.863,7.727a2.051,2.051,0,0,1-3.669,0l-2.267-4.534-2.267,4.534a2.051,2.051,0,0,1-3.669,0l-4.1-8.2a2.051,2.051,0,0,1,3.669-1.834l2.267,4.534,2.267-4.534a2.067,2.067,0,0,1,3.669,0l2.267,4.534,2.267-4.534a2.129,2.129,0,0,1,1.967-1.13,2.1,2.1,0,0,1,1.947,1.984,2.029,2.029,0,0,1,1.1-1.771,2.054,2.054,0,0,1,2.752.917l2.267,4.534,2.267-4.534a2.135,2.135,0,0,1,3.669,0l2.267,4.534,2.267-4.534a2.054,2.054,0,0,1,2.752-.917,2.026,2.026,0,0,1,1.1,1.753,1.971,1.971,0,0,1,1.825-1.957,2.27,2.27,0,0,1,2.091,1.122l2.267,4.534,2.267-4.534a2.135,2.135,0,0,1,3.669,0l2.267,4.534,2.267-4.534a2.051,2.051,0,0,1,3.669,1.834Z" transform="translate(0 -181)" fill="#ff8e43"/>
    </g>
  </g>
  <g id="Group_8" data-name="Group 8" transform="translate(37.051 49.355)">
    <g id="Group_7" data-name="Group 7">
      <path id="Path_50" data-name="Path 50" d="M271,361v16.2c4.4-1.446,8.365-7.628,10.551-16.2Z" transform="translate(-271 -361)" fill="#ff8e43"/>
    </g>
  </g>
  <g id="Group_10" data-name="Group 10" transform="translate(37.051 4.443)">
    <g id="Group_9" data-name="Group 9">
      <path id="Path_51" data-name="Path 51" d="M271,32.5V48.7h10.551C279.365,40.129,275.4,33.947,271,32.5Z" transform="translate(-271 -32.501)" fill="#ff8e43"/>
    </g>
  </g>
  <g id="Group_12" data-name="Group 12" transform="translate(3.356 49.355)">
    <g id="Group_11" data-name="Group 11">
      <path id="Path_52" data-name="Path 52" d="M39.375,361H24.544a35.146,35.146,0,0,0,31.644,20.645C48.78,381.645,42.308,373.486,39.375,361Z" transform="translate(-24.544 -361)" fill="#ff8e43"/>
    </g>
  </g>
  <g id="Group_14" data-name="Group 14" transform="translate(35 49.355)">
    <g id="Group_13" data-name="Group 13">
      <path id="Path_53" data-name="Path 53" d="M272.814,361c-2.934,12.486-9.406,20.645-16.814,20.645A35.146,35.146,0,0,0,287.644,361Z" transform="translate(-256 -361)" fill="#ff8e43"/>
    </g>
  </g>
  <g id="Group_16" data-name="Group 16" transform="translate(3.356)">
    <g id="Group_15" data-name="Group 15">
      <path id="Path_54" data-name="Path 54" d="M24.544,20.645H39.375C42.308,8.159,48.78,0,56.188,0A35.147,35.147,0,0,0,24.544,20.645Z" transform="translate(-24.544 0)" fill="#ff8e43"/>
    </g>
  </g>
  <g id="Group_18" data-name="Group 18" transform="translate(35 0)">
    <g id="Group_17" data-name="Group 17">
      <path id="Path_55" data-name="Path 55" d="M256,0c7.408,0,13.88,8.159,16.814,20.645h14.831A35.147,35.147,0,0,0,256,0Z" transform="translate(-256)" fill="#ff8e43"/>
    </g>
  </g>
</svg>
