<svg xmlns="http://www.w3.org/2000/svg" viewBox="0 0 24 24">
<defs>
    <linearGradient id="grad1" gradientTransform="rotate(90)">
      <stop offset="0%" style="stop-color:#E14985;stop-opacity:1" />
      <stop offset="100%" style="stop-color:#7C97EC;stop-opacity:1" />
    </linearGradient>
</defs>
<path fill="url(#grad1)" d="M5,18H9.24a1,1,0,0,0,.71-.29l6.92-6.93h0L19.71,8a1,1,0,0,0,0-1.42L15.47,2.29a1,1,0,0,0-1.42,0L11.23,5.12h0L4.29,12.05a1,1,0,0,0-.29.71V17A1,1,0,0,0,5,18ZM14.76,4.41l2.83,2.83L16.17,8.66,13.34,5.83ZM6,13.17l5.93-5.93,2.83,2.83L8.83,16H6ZM21,20H3a1,1,0,0,0,0,2H21a1,1,0,0,0,0-2Z"/></svg>